<?xml version="1.0" encoding="UTF-8" standalone="no"?>
<!-- Created with Inkscape (http://www.inkscape.org/) -->

<svg
   width="340"
   height="340"
   viewBox="0 0 89.958333 89.95833"
   version="1.1"
   id="svg3687"
   inkscape:version="1.2.2 (732a01da63, 2022-12-09)"
   sodipodi:docname="logo-340x340.svg"
   xmlns:inkscape="http://www.inkscape.org/namespaces/inkscape"
   xmlns:sodipodi="http://sodipodi.sourceforge.net/DTD/sodipodi-0.dtd"
   xmlns="http://www.w3.org/2000/svg"
   xmlns:svg="http://www.w3.org/2000/svg">
  <sodipodi:namedview
     id="namedview3689"
     pagecolor="#ffffff"
     bordercolor="#000000"
     borderopacity="0.25"
     inkscape:showpageshadow="2"
     inkscape:pageopacity="0.0"
     inkscape:pagecheckerboard="0"
     inkscape:deskcolor="#d1d1d1"
     inkscape:document-units="mm"
     showgrid="false"
     inkscape:zoom="2.1089996"
     inkscape:cx="128.02279"
     inkscape:cy="149.83407"
     inkscape:window-width="1920"
     inkscape:window-height="1017"
     inkscape:window-x="-8"
     inkscape:window-y="321"
     inkscape:window-maximized="1"
     inkscape:current-layer="layer1" />
  <defs
     id="defs3684" />
  <g
     inkscape:label="Layer 1"
     inkscape:groupmode="layer"
     id="layer1"
     transform="translate(-27.042087,-66.425793)">
    <g
       id="g3668"
       transform="matrix(0.56390052,0,0,0.56390052,12.187491,32.346918)">
      <path
         d="m 30.264032,185.19647 c -0.973186,-0.36214 -1.288287,-0.65308 -1.691018,-1.56134 -2.069067,-4.66629 -2.775286,-36.90979 -1.794383,-81.92531 0.154327,-7.082368 0.283116,-14.724988 0.286197,-16.983598 0.173358,-3.334217 0.772382,-7.152463 2.192555,-10.964314 0.776766,-2.084897 2.252033,-4.311177 2.809233,-5.150272 1.280136,-1.927776 3.373903,-4.040004 4.733121,-4.774856 0.914582,-0.494462 1.245104,-0.567263 2.575405,-0.567263 1.338177,0 1.653866,0.0705 2.562889,0.572312 2.02898,1.12008 4.553268,3.91919 5.735673,6.360124 0.315832,0.651999 1.024496,1.644381 1.574806,2.20529 1.200908,1.224043 2.497552,1.716704 5.341711,2.029591 1.98606,0.218488 5.593388,1.91e-4 6.838304,-0.413669 0.868251,-0.288695 2.884436,-1.838841 5.322217,-4.091985 4.726599,-4.368608 7.046229,-5.993966 8.554309,-5.993966 1.25038,0 2.60093,0.365345 3.53105,0.955212 1.70657,1.082277 2.50597,3.262588 3.26689,8.910206 0.74146,5.50324 1.00794,6.05289 5.15963,10.64244 5.94567,6.57273 7.9917,11.340575 9.222,16.120118 0.850157,3.30274 0.991976,9.38988 0.007,13.92627 -1.042842,4.8029 -2.81774,9.04059 -6.12132,13.4137 -0.64891,0.85899 -2.17242,2.55349 -3.38557,3.76556 -3.54991,3.5467 -7.11678,6.03411 -12.69814,8.85524 -7.972165,4.02957 -11.831257,4.90309 -24.895578,5.63522 -2.046016,0.11466 -5.694506,0.33153 -8.107756,0.48192 -2.41325,0.1504 -4.666729,0.27479 -5.007732,0.27642 -0.620012,0.003 -0.620012,0.003 -0.620012,18.32309 0,19.49881 0.0081,19.31921 -0.891674,19.80075 -0.641683,0.34342 -3.707627,0.44775 -4.499407,0.15311 z m 24.062044,-48.3713 c 4.43185,-0.66771 7.111864,-1.32745 11.280041,-2.7768 4.914714,-1.70894 9.411774,-4.175 12.940304,-7.09612 3.37,-2.78987 7.24657,-8.1565 7.86404,-10.88679 0.24823,-1.0976 -0.65589,-1.81833 -5.57519,-4.44434 -1.3986,-0.74659 -2.98598,-1.69845 -3.52752,-2.11525 -1.63086,-1.2552 -2.01248,-2.70027 -0.86921,-3.29147 0.79146,-0.40929 2.09381,-0.0954 5.84689,1.40911 1.79093,0.71794 3.61796,1.36209 4.06008,1.43145 0.70631,0.11081 0.86593,0.064 1.31552,-0.38556 0.50643,-0.50643 0.51045,-0.53149 0.39279,-2.44792 -0.20847,-3.3955 -1.00079,-5.07148 -2.27688,-4.81626 -0.32884,0.0658 -1.54647,0.56294 -2.70584,1.10483 -3.30872,1.54648 -5.25566,1.48877 -5.25566,-0.15579 0,-1.47633 0.97021,-2.554677 4.01255,-4.459858 1.56343,-0.97904 2.18395,-1.70661 2.01833,-2.36651 -0.22838,-0.90993 -1.75339,-2.8659 -4.35917,-5.59105 -4.9765,-5.20445 -5.24914,-5.65893 -5.41178,-9.02103 -0.1652,-3.415137 -0.59798,-4.337628 -1.7544,-3.739621 -0.29583,0.152979 -1.28416,1.091157 -2.19629,2.084841 -1.856904,2.02291 -2.935214,2.79613 -4.613949,3.30851 -1.009368,0.30808 -1.832183,0.34712 -6.963131,0.33039 -8.185562,-0.0267 -11.985541,-0.54382 -13.937843,-1.89676 -1.002001,-0.69439 -1.894283,-1.81832 -3.047137,-3.838206 -1.025962,-1.79756 -1.926442,-2.795237 -2.434588,-2.697378 -0.398684,0.07678 -1.122041,1.146927 -1.377605,2.038056 -0.625219,2.180078 -1.007816,7.070948 -1.247857,15.951798 -0.123752,4.5785 -0.123752,4.5785 1.279025,5.32471 2.278266,1.21193 4.285573,2.559338 5.014094,3.365728 0.531886,0.58873 0.681023,0.91432 0.681023,1.48677 0,1.13876 -0.467343,1.44623 -1.950562,1.28326 -0.658436,-0.0723 -1.739024,-0.25537 -2.40131,-0.40673 -0.662285,-0.15136 -1.496272,-0.2752 -1.853303,-0.2752 -1.002978,0 -1.139728,0.42407 -1.138087,3.52926 0.0015,2.88641 0.167752,3.5299 0.911462,3.52843 0.232386,-3.9e-4 1.538531,-0.39286 2.902541,-0.87199 3.881956,-1.3636 4.86177,-1.61991 6.323673,-1.65421 1.595717,-0.0374 1.974854,0.17887 1.974854,1.12673 0,1.31898 -1.778698,2.55873 -7.12117,4.96343 -3.348597,1.50724 -4.299574,2.06809 -4.528746,2.67085 -0.482581,1.26929 -0.943244,5.6406 -1.333343,12.65232 -0.218287,3.92354 -0.08664,5.7317 0.480319,6.59699 0.452237,0.6902 2.593059,1.19624 6.302891,1.48985 2.463558,0.19498 9.804846,-0.0695 12.280144,-0.44247 z M 64.589911,98.441573 c -0.627236,-0.06991 -1.293288,-0.241982 -1.780994,-0.642551 -0.558826,-0.458983 -1.072864,-1.137044 -1.118774,-1.85874 -0.09344,-1.46891 0.458189,-3.392465 1.779365,-4.04125 1.489095,-0.731245 3.643586,0.03893 4.830536,1.19793 0.496573,0.484879 0.628446,1.318892 0.549176,2.00839 -0.130176,1.132279 -0.685858,2.364253 -1.62678,3.007423 -0.730066,0.499039 -1.753643,0.426754 -2.632529,0.328798 z M 48.072872,98.98337 c -0.959422,-0.30627 -2.038313,-1.42381 -2.294443,-2.37664 -0.25693,-0.95581 -0.02313,-2.609097 0.61096,-3.466757 1.313485,-1.77658 4.715437,-1.71978 6.399158,0.10684 1.210645,1.31339 1.248189,3.285507 0.107006,4.641717 -0.905345,1.07595 -3.229219,1.603513 -4.822681,1.09484 z"
         style="fill:#000000;stroke-width:0.190771"
         id="path3026"
         sodipodi:nodetypes="csscsssscssscssssssascssscsscccsssssssscscsssssssssssssssssscssccscsssssscaaaaaaaassssss" />
      <path
         d="m 148.79545,217.0529 c -2.34257,-0.33309 -3.31846,-0.58377 -5.24619,-1.34758 -8.47472,-3.35786 -14.74112,-8.54733 -19.8869,-16.46919 -0.78378,-1.20662 -2.33772,-4.01873 -3.54395,-6.20004 -1.06758,-1.93058 -2.66175,-10.99376 -2.50367,-15.16628 0.44567,-11.76311 0.89391,-17.26622 4.84791,-23.46481 1.76804,-2.77171 2.2959,-4.72033 2.56748,-9.47795 0.21121,-3.69982 0.67125,-6.22359 1.65057,-9.055 1.23159,-3.56071 2.14989,-4.80774 4.35004,-5.89624 1.33699,-0.66146 1.714,-0.73354 2.79953,-0.3603 2.58531,0.8889 3.87516,1.76344 8.39608,5.77166 2.54131,2.25311 2.54131,2.25311 5.60445,2.14036 1.68472,-0.062 5.54148,-0.19725 8.57057,-0.30054 6.49872,-0.2216 9.89828,-0.48145 11.47115,-0.87682 0.62955,-0.15824 2.26064,-0.83628 3.62465,-1.50675 3.23141,-1.58836 4.97503,-2.06582 7.14272,-1.95589 3.13886,0.15919 4.29535,1.30377 5.06801,5.0158 0.42194,2.02708 0.59985,7.27602 0.2959,8.72967 -0.39775,1.90226 -1.53228,2.8159 -3.48659,2.80777 -2.44102,-0.0101 -4.79124,-2.15941 -5.03277,-4.60245 -0.21972,-2.22249 -0.24977,-2.23766 -2.25406,-1.13789 -1.74096,0.95527 -2.85135,1.27529 -6.01736,1.73418 -5.02788,0.72875 -20.53349,1.52014 -24.14069,1.2321 -1.83406,-0.14645 -3.1022,-0.66834 -4.74249,-1.95173 -1.70373,-1.33304 -2.99508,-2.19 -3.11675,-2.06833 -0.25779,0.25779 -0.42354,1.94235 -0.43429,4.41368 -0.0254,5.83804 -0.35433,7.02491 -2.87895,10.38754 -3.96574,5.28208 -5.3942,11.55954 -4.77642,20.99033 0.57919,8.84182 3.19257,15.43667 8.17373,20.62632 3.93263,4.09725 9.02434,7.02319 14.26137,8.19528 1.51463,0.33899 2.49733,0.42663 4.76927,0.42536 3.37527,-0.002 5.66916,-0.40001 8.59197,-1.49115 5.72197,-2.13614 9.61917,-5.30045 13.41299,-10.89061 1.34154,-1.97676 3.0815,-3.78261 4.25243,-4.41348 1.96816,-1.06041 4.55203,0.0679 5.12739,2.23907 0.84284,3.18055 -1.69583,8.09208 -7.01958,13.58066 -5.71504,5.89198 -10.90677,8.89506 -17.30099,10.00753 -1.65539,0.288 -11.15213,0.54111 -12.59656,0.33572 z m 27.6397,-42.51102 c -1.52998,-0.76556 -3.85716,-2.65804 -4.45183,-3.62025 -0.58023,-0.93882 -0.48664,-2.18515 0.19258,-2.56466 0.72285,-0.40389 1.60221,-0.15963 3.5015,0.97259 4.21471,2.51252 5.77102,4.78552 3.83148,5.59591 -0.99467,0.41559 -1.63672,0.33547 -3.07373,-0.38359 z m -40.85212,-0.29734 c -1.04233,-0.43302 -1.01758,-2.03649 0.0497,-3.21781 1.29325,-1.43148 4.44104,-2.50465 7.34654,-2.50465 1.41001,0 1.75523,0.0652 2.30642,0.43537 0.50548,0.3395 0.66097,0.58664 0.7061,1.12234 0.0502,0.59588 -0.0383,0.76627 -0.6677,1.28516 -0.78742,0.64918 -3.21038,1.64457 -5.781,2.37493 -1.98225,0.56319 -3.38794,0.74233 -3.96004,0.50466 z m 3.93538,-7.98939 c -3.26894,-1.39485 -6.46154,-3.6323 -6.46154,-4.52839 0,-0.93711 1.3047,-2.17094 2.29565,-2.17094 0.24107,0 1.34695,0.48362 2.45751,1.0747 3.93873,2.09636 4.77977,2.86256 4.93687,4.4976 0.16818,1.75026 -0.89672,2.122 -3.22849,1.12703 z m 33.73456,-0.86151 c -1.36964,-1.26934 -0.023,-3.22197 4.11658,-5.96895 4.67079,-3.09952 6.61068,-3.52234 7.1033,-1.54824 0.1793,0.71851 -0.20952,1.76061 -0.92429,2.4772 -0.81208,0.81416 -3.81995,3.03604 -5.2241,3.85899 -1.36482,0.7999 -2.73933,1.35574 -3.78379,1.53013 -0.6602,0.11024 -0.84655,0.0597 -1.2877,-0.34913 z m -25.60214,-1.33785 c -1.30592,-0.58042 -2.00324,-1.92919 -2.0028,-3.87384 3.8e-4,-1.61525 0.39927,-2.46923 1.43048,-3.06244 0.65411,-0.37628 0.98319,-0.43117 2.30433,-0.38442 1.35754,0.0481 1.62664,0.11972 2.2578,0.60127 1.09577,0.83606 1.44561,1.54736 1.44644,2.94098 0.001,1.80078 -0.67808,3.12043 -1.94521,3.77972 -0.64878,0.33756 -2.73039,0.3368 -3.49104,-0.001 z m 16.96194,-0.86441 c -0.32393,-0.0774 -0.69754,-0.2079 -0.83024,-0.28992 -0.75285,-0.46528 -1.04805,-3.41773 -0.48293,-4.8301 0.41321,-1.03273 1.10053,-1.3771 2.74847,-1.3771 0.74788,0 1.64004,0.1171 1.98257,0.26022 1.41185,0.5899 2.2231,2.49455 1.86891,4.38782 -0.20763,1.10986 -0.66262,1.61484 -1.66438,1.84721 -0.87145,0.20214 -2.78053,0.20313 -3.6224,0.002 z"
         style="fill:#000000;stroke-width:0.190771"
         id="path3059"
         sodipodi:nodetypes="sssssssssssssssssscssssssssssscssssssssssssssssssssssssssssssssssscsscscscccsssssscc" />
      <g
         id="g3661">
        <path
           style="fill:#8a8a8a;fill-opacity:1;stroke-width:0.190771"
           d="m 75.395178,198.35225 c -0.391552,-0.43596 0.335714,-1.12439 0.55138,-1.66924 0.277824,-0.70189 0.635376,-1.36953 0.95386,-2.05393 0.865871,-1.86069 1.743669,-3.71584 2.60194,-5.58004 0.512536,-1.11325 0.999634,-2.23821 1.52137,-3.34718 0.210741,-0.44794 0.429052,-0.89231 0.64982,-1.33539 0.380563,-0.76379 0.77726,-1.51943 1.16311,-2.28056 0.289774,-0.57161 0.569859,-1.14816 0.86514,-1.71694 0.332237,-0.63997 0.67941,-1.27207 1.01986,-1.90771 1.015183,-1.8954 2.055766,-3.77734 3.04999,-5.68382 0.203263,-0.38977 0.380338,-0.79334 0.59594,-1.17642 0.04429,-0.0787 0.09648,-0.15271 0.14308,-0.23007 0.335581,-0.55702 0.658676,-1.12149 0.98301,-1.68514 0.565247,-0.98232 1.105491,-1.97899 1.67824,-2.95695 0.767961,-1.31128 1.551378,-2.61377 2.3571,-3.90219 0.283809,-0.45384 0.584141,-0.89714 0.87238,-1.34818 0.507972,-0.79487 1.00474,-1.59686 1.51036,-2.39323 0.341064,-0.53719 0.698175,-1.06436 1.02757,-1.60878 1.131102,-1.86947 2.109232,-3.82933 3.256052,-5.6892 0.15104,-0.24495 0.32758,-0.47365 0.47693,-0.71964 0.17021,-0.28034 0.28652,-0.59355 0.47692,-0.86058 0.34242,-0.48024 0.61363,-1.46675 1.18366,-1.31526 0.52805,0.14033 0.42107,1.06067 0.34693,1.60199 -0.27621,2.0166 -1.83752,3.63463 -2.84957,5.40063 -0.99691,1.73959 -2.15571,3.38232 -3.170882,5.11132 -0.460264,0.78391 -0.884229,1.58858 -1.32313,2.38464 -0.31507,0.57146 -0.62903,1.14354 -0.94059,1.71693 -0.879463,1.61854 -1.760149,3.2365 -2.62167,4.86466 -0.214563,0.4055 -0.424912,0.81321 -0.63441,1.22135 -0.244205,0.47575 -0.478513,0.95657 -0.7257,1.43078 -0.469072,0.89988 -0.947647,1.79489 -1.43714,2.68382 -0.363786,0.66065 -0.72662,1.32222 -1.1145,1.96902 -0.08248,0.13753 -0.178778,0.26665 -0.25772,0.40624 -0.345636,0.61116 -0.622148,1.25898 -0.94277,1.88363 -0.603755,1.17626 -1.222615,2.34477 -1.84704,3.51019 -0.335418,0.62602 -0.681386,1.24633 -1.02029,1.87047 -0.379427,0.69877 -0.757865,1.39808 -1.13427,2.09848 -0.580213,1.07964 -1.166708,2.15601 -1.73284,3.2431 -0.288194,0.55339 -0.557246,1.11664 -0.84695,1.66924 -0.14672,0.27987 -0.30823,0.55191 -0.451305,0.83366 -0.187443,0.36911 -0.353625,0.74865 -0.533015,1.12174 -0.320692,0.66697 -0.559975,1.38122 -0.97127,1.99647 -0.401738,0.60095 -0.956779,1.08387 -1.43931,1.62211 -0.202271,0.22562 -0.347804,0.52233 -0.61027,0.67376 -0.20082,0.11586 -0.52508,0.31871 -0.68,0.14622 z M 55.0543,187.91119 c -0.204929,-0.19741 0.155837,-0.54889 0.267115,-0.81078 0.142246,-0.33477 0.286008,-0.67788 0.509049,-0.96521 1.739008,-2.24027 4.111285,-3.91533 6.306152,-5.7113 0.519842,-0.42536 1.089413,-0.78641 1.621551,-1.19629 0.672286,-0.51783 1.328373,-1.05646 1.984235,-1.59494 1.159333,-0.95184 2.30563,-1.91954 3.448196,-2.89144 1.186287,-1.00909 2.361225,-2.03147 3.5374,-3.05233 0.803231,-0.69716 1.604825,-1.39623 2.40361,-2.09848 1.080732,-0.95013 2.149212,-1.91416 3.23234,-2.86156 0.855875,-0.74862 1.720089,-1.48766 2.581,-2.23048 0.947415,-0.81746 1.896978,-1.63244 2.84415,-2.45018 0.763789,-0.65942 1.530313,-1.31571 2.28924,-1.98072 0.831255,-0.72839 1.651995,-1.46869 2.48002,-2.20075 1.047534,-0.92613 2.098479,-1.84839 3.14772,-2.77258 0.953852,-0.84017 1.919313,-1.66734 2.86156,-2.52051 0.978456,-0.88595 1.922885,-1.80894 2.898662,-2.69784 0.6469,-0.58931 1.1093,-1.95432 1.95949,-1.74708 0.41509,0.10118 0.54348,0.77917 0.45687,1.19755 -0.82839,4.00162 -5.637765,5.91944 -8.558122,8.77789 -1.306966,1.27926 -2.664882,2.50549 -4.00958,3.74503 -1.011341,0.93225 -2.02859,1.85814 -3.05233,2.77676 -1.073352,0.96314 -2.146323,1.92702 -3.23971,2.86735 -3.267063,2.80972 -6.586207,5.5588 -9.92008,8.28891 -0.788526,0.64572 -1.586582,1.27975 -2.384632,1.91367 -0.292471,0.23232 -0.582366,0.46807 -0.88088,0.69257 -0.773235,0.58152 -1.569872,1.13125 -2.356617,1.69436 -1.154252,0.82615 -2.339709,1.60983 -3.468046,2.47103 -0.261046,0.19924 -0.504589,0.42059 -0.763083,0.62313 -0.395967,0.31026 -0.815555,0.58999 -1.206412,0.90666 -1.354618,1.09752 -2.442688,2.54734 -3.941172,3.43845 -0.3202,0.19041 -0.779397,0.64757 -1.047696,0.38911 z m -9.37166,-16.64434 c -0.248933,-0.20158 0.120462,-0.6331 0.238463,-0.93089 0.121319,-0.30616 0.251332,-0.62531 0.476927,-0.86523 1.986065,-2.11216 4.815853,-3.24105 7.344673,-4.65906 3.829039,-2.14709 7.85583,-3.92186 11.819434,-5.80902 0.536227,-0.25531 1.077677,-0.49952 1.618089,-0.74585 0.649891,-0.29623 1.302532,-0.58639 1.953422,-0.88042 0.624844,-0.28226 1.249066,-0.56591 1.87381,-0.84839 0.635757,-0.28746 1.267752,-0.58343 1.9077,-0.86144 0.712098,-0.30935 1.431664,-0.60125 2.14937,-0.89736 0.666548,-0.275 1.332975,-0.55042 2.00309,-0.81661 1.313798,-0.52189 2.636026,-1.02231 3.9553,-1.5302 0.667273,-0.25688 1.334195,-0.51471 2.00309,-0.76734 0.888691,-0.33564 1.776467,-0.67401 2.67079,-0.99434 0.601473,-0.21544 1.209366,-0.41256 1.81233,-0.62379 0.796414,-0.279 1.590734,-0.56396 2.38463,-0.85005 0.873536,-0.31478 1.759539,-0.59794 2.61734,-0.95337 0.770102,-0.31909 1.492368,-0.74763 2.26649,-1.05684 0.53038,-0.21185 1.280019,-1.00065 1.62438,-0.54502 0.708944,0.93802 -1.097609,2.14785 -1.99207,2.91101 -1.527852,1.30358 -3.598939,1.78892 -5.44605,2.57748 -2.81321,1.20101 -5.745422,2.10642 -8.57221,3.27511 -0.564575,0.23341 -1.116268,0.49685 -1.67414,0.74586 -0.616437,0.27515 -1.231744,0.55284 -1.84873,0.82676 -0.966966,0.4293 -1.942174,0.84016 -2.90437,1.28005 -0.543969,0.24869 -1.078899,0.51676 -1.62155,0.76831 -0.411747,0.19087 -0.824484,0.37971 -1.24001,0.5622 -0.854088,0.37511 -1.72202,0.7182 -2.575403,1.09491 -1.919506,0.84732 -3.814013,1.75019 -5.723122,2.62069 -0.99585,0.45408 -1.99035,0.91119 -2.989734,1.35743 -0.489584,0.21861 -0.983302,0.42788 -1.472819,0.64664 -1.131921,0.50584 -2.252578,1.03669 -3.385751,1.53972 -0.428305,0.19013 -0.863839,0.3639 -1.290013,0.55876 -1.065256,0.48706 -2.103691,1.03114 -3.165754,1.52513 -0.205004,0.0953 -0.413956,0.18207 -0.618843,0.27767 -0.427985,0.1997 -0.850872,0.41017 -1.274938,0.61807 -0.976729,0.47884 -2.078447,2.13398 -2.923821,1.44942 z m 70.41197,-39.64951 c -0.18141,-0.18818 0.18524,-0.48916 0.29215,-0.72768 0.12434,-0.27742 0.22248,-0.57422 0.40567,-0.81684 0.61872,-0.81944 1.50526,-1.39737 2.27831,-2.07316 0.62514,-0.54649 1.28741,-1.04983 1.90771,-1.60181 2.74168,-2.43972 5.32358,-5.05349 8.01139,-7.55244 0.44792,-0.41645 0.89631,-0.83249 1.35237,-1.24001 2.16621,-1.93566 4.33863,-3.86608 6.57261,-5.72312 1.83542,-1.52573 3.73953,-2.96687 5.60963,-4.44989 0.64317,-0.51005 1.27961,-1.0287 1.92974,-1.52985 1.74094,-1.34201 3.51136,-2.6454 5.27712,-3.95458 1.17199,-0.86895 2.33861,-1.74564 3.52926,-2.588842 0.77552,-0.54921 1.57124,-1.06934 2.35371,-1.6086 0.65444,-0.45102 1.28904,-0.93159 1.95804,-1.36072 0.57198,-0.3669 1.07593,-1.03926 1.75547,-1.0365 0.26968,0.001 0.6322,0.15432 0.6933,0.41699 0.13841,0.59502 -0.57947,1.09056 -0.99238,1.5408 -0.77754,0.84783 -1.80739,1.4241 -2.72929,2.1122 -0.59644,0.44518 -1.21657,0.858052 -1.81232,1.304152 -0.45727,0.34241 -0.90358,0.69925 -1.35208,1.05306 -0.99596,0.78568 -1.98783,1.57661 -2.97318,2.37556 -1.04948,0.85095 -2.08425,1.7199 -3.13001,2.57541 -0.70202,0.5743 -1.40325,1.14962 -2.11092,1.71693 -0.76031,0.60951 -1.53351,1.20282 -2.29382,1.81233 -1.93081,1.54787 -3.8323,3.13202 -5.75937,4.68454 -1.26705,1.02078 -2.54625,2.0264 -3.81541,3.04455 -1.44859,1.16209 -2.90507,2.31463 -4.33671,3.49755 -0.73858,0.61026 -1.47515,1.2234 -2.19386,1.85694 -1.19787,1.05593 -2.33617,2.17802 -3.52926,3.23935 -1.67096,1.48644 -3.15019,3.25341 -5.08172,4.38071 -0.55562,0.32428 -1.36966,1.11612 -1.81615,0.65297 z m -1.01911,-2.27277 c -0.87975,-1.1443 1.39903,-2.52542 2.12719,-3.77168 0.4282,-0.73287 0.88091,-1.45114 1.31799,-2.17874 0.277,-0.46111 0.55265,-0.92304 0.82671,-1.3859 0.93417,-1.57773 1.82909,-3.17891 2.78702,-4.74233 0.23155,-0.37791 0.4783,-0.74629 0.71539,-1.12075 0.14378,-0.22708 0.29025,-0.45254 0.42884,-0.68283 0.69176,-1.14941 1.3392,-2.32492 2.00936,-3.48706 0.23794,-0.41262 0.47509,-0.8257 0.71422,-1.23763 0.46213,-0.79607 0.92732,-1.59035 1.39251,-2.38463 0.59633,-1.01821 1.19535,-2.03483 1.79289,-3.05233 0.61614,-1.04918 1.232,-2.09854 1.84814,-3.14772 0.8963,-1.52625 1.78615,-3.056302 2.68932,-4.578502 0.40403,-0.68094 0.82363,-1.35266 1.22108,-2.03746 0.1851,-0.31893 0.35715,-0.6453 0.5418,-0.96449 0.1601,-0.27674 0.32422,-0.55117 0.49075,-0.82409 0.27126,-0.44454 0.56695,-0.874213 0.82809,-1.32477 0.60489,-1.043651 1.12136,-2.136401 1.70914,-3.189777 0.15356,-0.275186 0.32132,-0.542288 0.47469,-0.81757 0.35794,-0.642413 0.70581,-1.290621 1.0395,-1.945953 0.41022,-0.805634 0.78052,-1.63106 1.18296,-2.44061 0.27006,-0.54325 0.53965,-1.08695 0.82645,-1.62155 0.32347,-0.60296 0.62986,-1.21798 1.00827,-1.78807 0.69961,-1.05397 1.07428,-3.206912 2.32252,-3.001451 0.54956,0.09046 0.58394,1.023871 0.54504,1.579471 -0.13671,1.95269 -1.76924,3.492418 -2.67039,5.23012 -0.63647,1.227316 -1.27297,2.454804 -1.93269,3.669784 -0.30162,0.555481 -0.61364,1.105272 -0.92595,1.654816 -0.34462,0.606408 -0.7145,1.198595 -1.04591,1.81232 -0.54137,1.002534 -1.01896,2.03826 -1.53841,3.05233 -0.67002,1.30801 -1.3483,2.61184 -2.03569,3.91081 -0.4897,0.9254 -0.96831,1.857212 -1.48789,2.766172 -0.35804,0.62636 -0.75384,1.2304 -1.12221,1.85074 -0.24412,0.4111 -0.48575,0.82375 -0.72096,1.24001 -0.32506,0.57527 -0.63585,1.1585 -0.95386,1.7377 -0.31777,0.57876 -0.60931,1.17273 -0.95349,1.73618 -0.29592,0.48444 -0.63506,0.94113 -0.95385,1.41084 -0.31712,0.46726 -0.64296,0.92865 -0.95385,1.40007 -1.83503,2.7826 -3.71138,5.54357 -5.37881,8.42973 -0.1631,0.29446 -0.30685,0.62328 -0.44141,0.89915 -0.84578,1.5126 -1.81988,2.95293 -2.82737,4.36299 -0.21271,0.2977 -0.45605,0.57235 -0.678,0.86323 -0.20886,0.27372 -0.40869,0.55421 -0.61501,0.82984 -0.28776,0.38443 -0.55385,0.78663 -0.86876,1.14915 -0.33827,0.38941 -0.72377,0.73519 -1.09172,1.09668 -0.29032,0.28523 -0.52512,0.64745 -0.88042,0.84596 -0.22943,0.12819 -0.60304,0.40615 -0.76322,0.1978 z m -2.28925,-2.73479 c -0.003,-0.18459 0.12088,-0.34891 0.1775,-0.52462 0.53478,-1.65959 1.16011,-3.298 1.53186,-5.00154 0.25304,-1.15953 0.32427,-2.35146 0.4704,-3.52926 0.0985,-0.79401 0.17061,-1.59122 0.27392,-2.38463 0.36923,-2.83567 0.79648,-5.66369 1.23615,-8.4893 0.24201,-1.55535 0.50812,-3.10688 0.77158,-4.65875 0.15235,-0.89736 0.29501,-1.79659 0.46791,-2.690227 0.40729,-2.105121 0.87048,-4.199249 1.34107,-6.29113 0.36379,-1.617149 0.80025,-3.217736 1.1459,-4.83886 0.10306,-0.483364 0.16706,-0.97472 0.27654,-1.45667 0.0821,-0.361511 0.18824,-0.717154 0.28499,-1.07503 0.0937,-0.346595 0.19595,-0.69088 0.28615,-1.0384 0.29598,-1.140332 0.54503,-2.292447 0.83674,-3.43388 0.36544,-1.429942 0.72167,-2.863183 1.14427,-4.277286 0.38332,-1.282673 0.79802,-2.556961 1.26106,-3.813058 0.10708,-0.290473 0.2228,-0.578051 0.35048,-0.860074 0.14377,-0.317548 0.196,-0.716698 0.46736,-0.935487 0.21009,-0.169389 0.58296,-0.379452 0.78453,-0.199999 0.5468,0.486809 -0.15509,1.457655 -0.2927,2.176705 -0.22959,1.1997 -0.61863,2.363815 -0.88709,3.555421 -0.13544,0.601162 -0.24668,1.207534 -0.36487,1.812323 -0.0695,0.35565 -0.13339,0.71239 -0.20244,1.06813 -0.0703,0.36234 -0.14272,0.72428 -0.21581,1.08608 -0.37761,1.86926 -0.7652,3.73649 -1.15066,5.60414 -0.21659,1.04946 -0.4398,2.09756 -0.65299,3.14772 -0.42232,2.0803 -0.8165,4.16626 -1.24038,6.24625 -0.3082,1.51233 -0.64142,3.0195 -0.94729,4.532302 -0.32743,1.61944 -0.62992,3.24383 -0.95047,4.86465 -0.25793,1.3042 -0.53418,2.60479 -0.78277,3.9108 -0.42894,2.2535 -0.80287,4.51717 -1.22286,6.77236 -0.52707,2.83019 -0.40566,5.87518 -1.62772,8.48178 -0.28763,0.6135 -0.83265,1.07099 -1.28955,1.57136 -0.0822,0.09 -0.17044,0.17441 -0.26043,0.25659 -0.2877,0.26275 -0.51539,0.85356 -0.89233,0.75497 -0.11818,-0.0309 -0.12618,-0.22123 -0.12805,-0.34338 z"
           id="path2428"
           sodipodi:nodetypes="aaaaaaaaaaaaaaaaaaaaaaaaaaaaaaaaaaaaaaaaaaaaaaaaaaaaaaaaaaaaaaaaaaaaaaaaaaaaaaaaaaaaaaaaaaaaaaaaaaaaaaaaaaaaaaaaaaaaaaaaaaaaaaaaaaaaaaaaaaaaaaaaaaaaaaaaaaaaaaaaaaaaaaaaaaaaaaaaaaaaaaaccaaaaaaaaaaaaaaaaaaaaaaaaaaaaaaaaaaaaaaaaaaa" />
        <path
           d="m 100.69179,145.71392 c -2.765228,-0.44977 -4.227758,-1.11798 -5.793658,-2.64706 -1.82194,-1.7791 -1.64286,-3.77393 0.51592,-5.74694 1.72845,-1.57969 3.20437,-2.16507 5.794828,-2.29831 1.56633,-0.0806 1.56633,-0.0806 1.43078,-0.68676 -0.0746,-0.33341 -0.13555,-1.5076 -0.13555,-2.6093 0,-1.85714 0.0444,-2.09684 0.60948,-3.28972 0.84171,-1.77687 1.49824,-2.57539 2.48826,-3.02639 1.66321,-0.75768 2.92702,-0.41008 4.73297,1.30176 1.1986,1.13616 1.80449,1.97288 2.33113,3.21924 0.80538,1.90605 1.56121,5.5339 1.95828,9.3994 0.11467,1.1163 0.28573,2.28718 0.38014,2.60195 0.0944,0.31477 0.19634,1.04247 0.22651,1.61712 0.0549,1.0448 0.0549,1.0448 -5.00055,1.56369 -5.07203,0.5206 -8.64859,0.74607 -9.53854,0.60132 z"
           style="fill:#d2752a;fill-opacity:1;stroke-width:0.190771"
           id="path3092" />
      </g>
    </g>
  </g>
</svg>
